# Blender v2.69 (sub 0) OBJ File: ''
# www.blender.org
mtllib grass.mtl
o BezierCurve_Mesh.001
v -36.109310 4.231855 21.367407
v -34.000343 5.518560 21.367407
v -32.083908 6.010025 21.367407
v -30.259811 5.838034 21.367407
v -28.427826 5.134371 21.367407
v -26.487761 4.030821 21.367407
v -24.339407 2.659168 21.367407
v -21.882557 1.151196 21.367411
v -19.017008 -0.361311 21.367413
v -15.642554 -1.746568 21.367413
v -11.658991 -2.872791 21.367413
v -6.966109 -3.608195 21.367413
v -1.463707 -3.820991 21.367413
v 4.185612 -3.471766 21.367413
v 9.006263 -2.688569 21.367413
v 13.096806 -1.583548 21.367413
v 16.555803 -0.268852 21.367411
v 19.481815 1.143367 21.367411
v 21.973406 2.540961 21.367407
v 24.129133 3.811781 21.367407
v 26.047560 4.843676 21.367407
v 27.827246 5.524497 21.367407
v 29.566757 5.742095 21.367407
v 31.364645 5.384320 21.367407
v 33.319485 4.339024 21.367407
v -36.109310 4.231855 -20.978191
v -34.000343 5.518560 -20.978195
v -32.083908 6.010025 -20.978195
v -30.259811 5.838034 -20.978195
v -28.427826 5.134371 -20.978195
v -26.487761 4.030821 -20.978191
v -24.339407 2.659168 -20.978191
v -21.882557 1.151196 -20.978191
v -19.017008 -0.361311 -20.978191
v -15.642554 -1.746568 -20.978191
v -11.658991 -2.872791 -20.978188
v -6.966109 -3.608195 -20.978188
v -1.463707 -3.820991 -20.978188
v 4.185612 -3.471766 -20.978188
v 9.006263 -2.688569 -20.978191
v 13.096806 -1.583548 -20.978191
v 16.555803 -0.268852 -20.978191
v 19.481815 1.143367 -20.978191
v 21.973406 2.540961 -20.978191
v 24.129133 3.811781 -20.978191
v 26.047560 4.843676 -20.978195
v 27.827246 5.524497 -20.978195
v 29.566757 5.742095 -20.978195
v 31.364645 5.384320 -20.978195
v 33.319485 4.339024 -20.978191
vn 0.195170 0.980769 -0.000000
vn -0.507835 0.861454 0.000000
vn 0.093872 0.995584 -0.000000
vn -0.260792 0.965395 0.000000
vn 0.154817 0.987943 0.000000
vn 0.523107 0.852267 -0.000000
vn 0.471542 0.881844 -0.000000
vn -0.473707 0.880683 -0.000000
vn 0.466791 0.884368 0.000000
vn 0.358559 0.933507 0.000000
vn -0.355283 0.934759 -0.000000
vn 0.038644 0.999253 0.000000
vn -0.357299 0.933990 -0.000000
vn -0.434665 0.900592 0.000000
vn -0.061699 0.998095 0.000000
vn 0.379760 0.925085 -0.000000
vn 0.494429 0.869218 0.000000
vn -0.520829 0.853661 0.000000
vn -0.124124 0.992267 -0.000000
vn -0.489217 0.872162 0.000000
vn -0.160364 0.987058 0.000000
vn 0.272054 0.962282 -0.000000
vn 0.538137 0.842857 0.000000
vn -0.248409 0.968655 0.000000
vn -0.507835 0.861455 0.000000
vn -0.473708 0.880682 -0.000000
usemtl None
s off
f 24//1 49//1 23//1
f 20//2 45//2 19//2
f 4//3 29//3 3//3
f 16//4 41//4 15//4
f 12//5 37//5 11//5
f 8//6 33//6 7//6
f 25//7 50//7 24//7
f 21//8 46//8 20//8
f 9//9 34//9 8//9
f 5//10 30//10 4//10
f 17//11 42//11 16//11
f 13//12 38//12 12//12
f 22//13 47//13 21//13
f 18//14 43//14 17//14
f 14//15 39//15 13//15
f 10//16 35//16 9//16
f 6//17 31//17 5//17
f 2//18 27//18 1//18
f 23//19 48//19 22//19
f 19//20 44//20 18//20
f 15//21 40//21 14//21
f 11//22 36//22 10//22
f 7//23 32//23 6//23
f 3//24 28//24 2//24
f 49//1 48//1 23//1
f 45//25 44//25 19//25
f 29//3 28//3 3//3
f 41//4 40//4 15//4
f 37//5 36//5 11//5
f 33//6 32//6 7//6
f 50//7 49//7 24//7
f 46//26 45//26 20//26
f 34//9 33//9 8//9
f 30//10 29//10 4//10
f 42//11 41//11 16//11
f 38//12 37//12 12//12
f 47//13 46//13 21//13
f 43//14 42//14 17//14
f 39//15 38//15 13//15
f 35//16 34//16 9//16
f 31//17 30//17 5//17
f 27//18 26//18 1//18
f 48//19 47//19 22//19
f 44//20 43//20 18//20
f 40//21 39//21 14//21
f 36//22 35//22 10//22
f 32//23 31//23 6//23
f 28//24 27//24 2//24
